<svg width="610" height="610" viewBox="0 0 610 610" fill="none" xmlns="http://www.w3.org/2000/svg">
<circle cx="305" cy="305" r="305" fill="#AAD8D3" fill-opacity="0.12"/>
<g clip-path="url(#clip0)">
<path d="M387.459 128.097H307.717C305.972 128.102 304.248 127.709 302.677 126.948C301.106 126.187 299.729 125.077 298.652 123.704V123.704C297.555 122.317 296.788 120.699 296.411 118.971C296.034 117.244 296.056 115.453 296.475 113.736C303.824 82.9527 303.824 50.8719 296.475 20.0888C296.056 18.3713 296.034 16.5808 296.411 14.8536C296.788 13.1264 297.554 11.508 298.651 10.1215C299.729 8.74796 301.106 7.63827 302.677 6.87692C304.248 6.11557 305.972 5.72262 307.717 5.72799H387.459C390.212 5.7359 392.873 6.72083 394.968 8.50735C397.063 10.2939 398.455 12.766 398.898 15.4834C404.146 49.5687 404.146 84.2565 398.898 118.342C398.455 121.059 397.063 123.531 394.968 125.318C392.873 127.104 390.212 128.089 387.459 128.097V128.097Z" fill="#E6E6E6"/>
<path d="M307.717 11.728C306.879 11.7252 306.051 11.9136 305.296 12.279C304.542 12.6443 303.88 13.177 303.363 13.8364C302.83 14.512 302.458 15.3003 302.275 16.1414C302.092 16.9824 302.104 17.854 302.309 18.6899C309.878 50.3928 309.878 83.4323 302.31 115.135C302.104 115.971 302.093 116.842 302.275 117.683C302.458 118.524 302.829 119.312 303.363 119.988L303.363 119.988C303.881 120.648 304.542 121.181 305.296 121.546C306.051 121.912 306.879 122.1 307.717 122.097H387.459C388.781 122.098 390.06 121.629 391.069 120.774C392.078 119.919 392.751 118.734 392.968 117.43C398.122 83.949 398.122 49.8761 392.968 16.395C392.751 15.0907 392.078 13.9057 391.069 13.0511C390.06 12.1964 388.781 11.7275 387.459 11.728L307.717 11.728Z" fill="white"/>
<path d="M370.057 40.5787H328.212C326.622 40.577 325.097 39.9443 323.972 38.8195C322.847 37.6947 322.214 36.1697 322.213 34.5789V32.2343C322.214 30.6436 322.847 29.1186 323.972 27.9938C325.097 26.869 326.622 26.2363 328.212 26.2345H370.057C371.648 26.2363 373.173 26.869 374.298 27.9938C375.423 29.1186 376.055 30.6436 376.057 32.2343V34.579C376.055 36.1697 375.423 37.6947 374.298 38.8195C373.173 39.9443 371.648 40.577 370.057 40.5787Z" fill="#E6E6E6"/>
<path d="M370.057 70.2045H328.212C326.622 70.2028 325.097 69.5701 323.972 68.4453C322.847 67.3205 322.214 65.7954 322.213 64.2047V61.8601C322.214 60.2694 322.847 58.7443 323.972 57.6195C325.097 56.4947 326.622 55.8621 328.212 55.8604H370.057C371.648 55.8621 373.173 56.4947 374.298 57.6195C375.423 58.7443 376.055 60.2694 376.057 61.8601V64.2047C376.055 65.7954 375.423 67.3205 374.298 68.4453C373.173 69.5701 371.648 70.2028 370.057 70.2045Z" fill="#E6E6E6"/>
<path d="M370.057 99.8303H328.212C326.622 99.8286 325.097 99.1959 323.972 98.0711C322.847 96.9463 322.214 95.4212 322.213 93.8305V91.4859C322.214 89.8952 322.847 88.3701 323.972 87.2453C325.097 86.1205 326.622 85.4879 328.212 85.4861H370.057C371.648 85.4879 373.173 86.1205 374.298 87.2453C375.423 88.3701 376.055 89.8952 376.057 91.4859V93.8305C376.055 95.4212 375.423 96.9463 374.298 98.0711C373.173 99.1959 371.648 99.8286 370.057 99.8303V99.8303Z" fill="#E6E6E6"/>
<path d="M537.459 204.097H457.717C455.972 204.102 454.248 203.709 452.677 202.948C451.106 202.187 449.729 201.077 448.652 199.704V199.704C447.555 198.317 446.788 196.699 446.411 194.971C446.034 193.244 446.056 191.453 446.475 189.736C453.824 158.953 453.824 126.872 446.475 96.0888C446.056 94.3713 446.034 92.5808 446.411 90.8536C446.788 89.1264 447.555 87.508 448.651 86.1215C449.729 84.748 451.106 83.6383 452.677 82.8769C454.248 82.1156 455.972 81.7226 457.717 81.728H537.459C540.212 81.7359 542.873 82.7208 544.968 84.5073C547.063 86.2939 548.455 88.766 548.898 91.4834C554.146 125.569 554.146 160.256 548.898 194.342C548.455 197.059 547.063 199.531 544.968 201.318C542.873 203.104 540.212 204.089 537.459 204.097Z" fill="#E6E6E6"/>
<path d="M457.717 87.728C456.879 87.7252 456.051 87.9136 455.296 88.279C454.542 88.6443 453.881 89.177 453.363 89.8364C452.83 90.512 452.458 91.3003 452.275 92.1414C452.092 92.9824 452.104 93.854 452.309 94.6899C459.878 126.393 459.878 159.432 452.31 191.135C452.104 191.971 452.093 192.842 452.275 193.683C452.458 194.524 452.829 195.312 453.363 195.988L453.363 195.988C453.881 196.648 454.542 197.181 455.296 197.546C456.051 197.912 456.879 198.1 457.717 198.097H537.459C538.781 198.098 540.06 197.629 541.069 196.774C542.078 195.919 542.751 194.734 542.968 193.43C548.122 159.949 548.122 125.876 542.968 92.395C542.751 91.0907 542.078 89.9057 541.069 89.0511C540.06 88.1964 538.781 87.7275 537.459 87.728L457.717 87.728Z" fill="white"/>
<path d="M378.459 290.597H298.717C296.896 290.603 295.097 290.193 293.458 289.398C291.819 288.604 290.383 287.446 289.259 286.013C288.115 284.567 287.316 282.88 286.922 281.079C286.529 279.277 286.552 277.41 286.989 275.619C294.32 244.913 294.32 212.912 286.988 182.206C286.552 180.415 286.529 178.547 286.922 176.746C287.316 174.945 288.115 173.258 289.259 171.812C290.383 170.379 291.819 169.221 293.458 168.427C295.097 167.633 296.896 167.223 298.717 167.228H378.459C381.331 167.237 384.107 168.264 386.293 170.129C388.478 171.993 389.931 174.572 390.392 177.407C395.648 211.543 395.648 246.282 390.392 280.418C389.931 283.253 388.478 285.832 386.293 287.697C384.107 289.561 381.331 290.589 378.459 290.597V290.597Z" fill="#F2F2F2"/>
<path d="M520.057 131.579H478.212C476.622 131.577 475.097 130.944 473.972 129.82C472.847 128.695 472.214 127.17 472.213 125.579V123.234C472.214 121.644 472.847 120.119 473.972 118.994C475.097 117.869 476.622 117.236 478.212 117.235H520.057C521.648 117.236 523.173 117.869 524.298 118.994C525.423 120.119 526.055 121.644 526.057 123.234V125.579C526.055 127.17 525.423 128.695 524.298 129.82C523.173 130.944 521.648 131.577 520.057 131.579V131.579Z" fill="#E6E6E6"/>
<path d="M520.057 161.204H478.212C476.622 161.203 475.097 160.57 473.972 159.445C472.847 158.32 472.214 156.795 472.213 155.205V152.86C472.214 151.269 472.847 149.744 473.972 148.62C475.097 147.495 476.622 146.862 478.212 146.86H520.057C521.648 146.862 523.173 147.495 524.298 148.62C525.423 149.744 526.055 151.269 526.057 152.86V155.205C526.055 156.795 525.423 158.32 524.298 159.445C523.173 160.57 521.648 161.203 520.057 161.204V161.204Z" fill="#E6E6E6"/>
<path d="M338.811 251.5C351.514 251.5 361.811 241.203 361.811 228.5C361.811 215.797 351.514 205.5 338.811 205.5C326.108 205.5 315.811 215.797 315.811 228.5C315.811 241.203 326.108 251.5 338.811 251.5Z" fill="white"/>
<path d="M349.811 225.5H341.811V217.5C341.811 216.704 341.495 215.941 340.932 215.379C340.37 214.816 339.607 214.5 338.811 214.5C338.015 214.5 337.252 214.816 336.69 215.379C336.127 215.941 335.811 216.704 335.811 217.5V225.5H327.811C327.015 225.5 326.252 225.816 325.69 226.379C325.127 226.941 324.811 227.704 324.811 228.5C324.811 229.296 325.127 230.059 325.69 230.621C326.252 231.184 327.015 231.5 327.811 231.5H335.811V239.5C335.811 240.296 336.127 241.059 336.69 241.621C337.252 242.184 338.015 242.5 338.811 242.5C339.607 242.5 340.37 242.184 340.932 241.621C341.495 241.059 341.811 240.296 341.811 239.5V231.5H349.811C350.607 231.5 351.37 231.184 351.932 230.621C352.495 230.059 352.811 229.296 352.811 228.5C352.811 227.704 352.495 226.941 351.932 226.379C351.37 225.816 350.607 225.5 349.811 225.5V225.5Z" fill="#E6E6E6"/>
<path d="M367.811 17H325.811C324.618 16.9987 323.474 16.5241 322.631 15.6805C321.787 14.8369 321.312 13.6931 321.311 12.5V4.5C321.312 3.30694 321.787 2.16313 322.631 1.3195C323.474 0.475881 324.618 0.00134456 325.811 0H367.811C369.004 0.00134456 370.148 0.475881 370.992 1.3195C371.835 2.16313 372.31 3.30694 372.311 4.5V12.5C372.31 13.6931 371.835 14.8369 370.992 15.6805C370.148 16.5241 369.004 16.9987 367.811 17Z" fill="#CCCCCC"/>
<path d="M519.811 94H477.811C476.618 93.9987 475.474 93.5241 474.631 92.6805C473.787 91.8369 473.312 90.6931 473.311 89.5V81.5C473.312 80.3069 473.787 79.1631 474.631 78.3195C475.474 77.4759 476.618 77.0013 477.811 77H519.811C521.004 77.0013 522.148 77.4759 522.992 78.3195C523.835 79.1631 524.31 80.3069 524.311 81.5V89.5C524.31 90.6931 523.835 91.8369 522.992 92.6805C522.148 93.5241 521.004 93.9987 519.811 94Z" fill="#CCCCCC"/>
<path d="M155.596 471.061H167.856L171.689 423.773H155.594L155.596 471.061Z" fill="#FFB8B8"/>
<path d="M152.469 467.058L176.613 467.057H176.614C178.635 467.057 180.635 467.455 182.502 468.229C184.369 469.002 186.065 470.135 187.494 471.564C188.923 472.993 190.056 474.689 190.829 476.556C191.603 478.422 192.001 480.423 192 482.444V482.944L152.47 482.945L152.469 467.058Z" fill="#2F2E41"/>
<path d="M89.596 471.061H101.856L107.689 423.773H89.594L89.596 471.061Z" fill="#FFB8B8"/>
<path d="M86.4692 467.058L110.613 467.057H110.614C112.635 467.057 114.635 467.455 116.502 468.229C118.369 469.002 120.065 470.135 121.494 471.564C122.923 472.993 124.056 474.689 124.829 476.556C125.603 478.422 126 480.423 126 482.444V482.944L86.47 482.945L86.4692 467.058Z" fill="#2F2E41"/>
<path d="M91.7712 456.123C90.5206 456.122 89.3158 455.652 88.3962 454.804V454.804C87.9026 454.354 87.505 453.808 87.2273 453.201C86.9497 452.593 86.7977 451.935 86.7805 451.267L81.8638 275.054L151.675 292.506L173.215 357.124C175.992 365.436 177.195 374.194 176.76 382.948L174.085 445.584C174.024 446.868 173.471 448.078 172.541 448.964C171.611 449.85 170.376 450.344 169.091 450.343H157.382C156.173 450.338 155.007 449.898 154.097 449.103C153.187 448.307 152.594 447.211 152.427 446.014L144.058 376.872C143.327 371.478 141.44 366.306 138.527 361.708L122.057 335.632C121.947 335.458 121.786 335.322 121.595 335.243C121.405 335.164 121.195 335.145 120.994 335.19C120.793 335.235 120.61 335.341 120.472 335.494C120.333 335.646 120.245 335.838 120.219 336.042L107.295 451.13C107.156 452.298 106.61 453.379 105.753 454.183C104.895 454.987 103.782 455.463 102.608 455.527L92.0559 456.114C91.9609 456.119 91.8662 456.123 91.7712 456.123Z" fill="#2F2E41"/>
<path d="M140.058 160.967C153.622 160.967 164.619 149.971 164.619 136.406C164.619 122.841 153.622 111.845 140.058 111.845C126.493 111.845 115.497 122.841 115.497 136.406C115.497 149.971 126.493 160.967 140.058 160.967Z" fill="#FFB8B8"/>
<path d="M151.341 299.672C150.918 299.672 150.497 299.618 150.088 299.513H150.087L80.8226 281.753C79.5842 281.436 78.5144 280.657 77.8331 279.575C77.1518 278.493 76.9108 277.192 77.1597 275.938L93.0668 190.247C94.0579 185.294 96.2363 180.655 99.415 176.729C102.594 172.803 106.678 169.707 111.317 167.708C115.836 165.707 120.779 164.85 125.709 165.212C130.638 165.574 135.403 167.144 139.582 169.783C140.552 170.388 141.529 171.047 142.485 171.744C146.334 174.583 149.472 178.275 151.655 182.531C153.837 186.787 155.004 191.491 155.064 196.273L156.329 294.602C156.337 295.263 156.214 295.919 155.968 296.533C155.721 297.147 155.355 297.705 154.892 298.177C154.428 298.648 153.875 299.023 153.266 299.28C152.656 299.537 152.002 299.67 151.341 299.672V299.672Z" fill="#393E46"/>
<path d="M87.9493 300.68C87.1231 299.464 86.5734 298.082 86.3392 296.631C86.105 295.179 86.1918 293.694 86.5936 292.28C86.9953 290.866 87.7023 289.557 88.6646 288.446C89.6269 287.334 90.8212 286.448 92.1633 285.848L89.0825 250.246L105.409 259.094L105.831 291.546C106.689 293.867 106.666 296.423 105.766 298.729C104.866 301.034 103.152 302.93 100.947 304.056C98.7432 305.181 96.2026 305.46 93.807 304.838C91.4114 304.215 89.3272 302.736 87.9493 300.68H87.9493Z" fill="#FFB8B8"/>
<path d="M93.782 281.139C93.3213 281.139 92.8625 281.081 92.4162 280.966C91.4564 280.721 90.5805 280.222 89.8813 279.52C89.1821 278.818 88.6856 277.941 88.4443 276.98L80.4211 245.096C77.6172 233.96 78.9539 222.185 84.1824 211.961L100.991 179.08C102.054 175.143 104.621 171.781 108.14 169.72C111.658 167.659 115.846 167.063 119.799 168.061C121.77 168.559 123.622 169.443 125.249 170.661C126.875 171.88 128.243 173.41 129.274 175.162C130.326 176.938 131.014 178.907 131.298 180.952C131.582 182.997 131.456 185.079 130.928 187.075L107.001 240.581L107.285 272.616C107.292 273.746 106.952 274.852 106.311 275.782C105.67 276.713 104.759 277.425 103.7 277.821L95.6931 280.794C95.0817 281.022 94.4344 281.139 93.782 281.139Z" fill="#393E46"/>
<path d="M208.318 287.585C206.857 287.418 205.451 286.933 204.198 286.163C202.945 285.394 201.876 284.36 201.067 283.133C200.257 281.906 199.726 280.516 199.512 279.062C199.297 277.607 199.404 276.124 199.825 274.715L170.831 253.826L188.188 247.224L213.06 268.073C215.379 268.937 217.301 270.622 218.461 272.808C219.622 274.994 219.94 277.53 219.355 279.935C218.771 282.34 217.324 284.447 215.29 285.857C213.256 287.267 210.775 287.882 208.318 287.585H208.318Z" fill="#FFB8B8"/>
<path d="M193.14 272.331C192.285 272.33 191.442 272.131 190.677 271.749L161.278 257.032C151.009 251.892 142.957 243.198 138.617 232.566L124.66 198.376C122.37 195.002 121.497 190.863 122.23 186.852C122.962 182.84 125.242 179.278 128.578 176.932C130.244 175.76 132.127 174.931 134.117 174.495C136.107 174.058 138.164 174.022 140.168 174.388C142.196 174.753 144.131 175.516 145.861 176.634C147.592 177.752 149.083 179.202 150.249 180.9L175.194 233.94L199.66 254.623C200.521 255.354 201.137 256.333 201.425 257.426C201.712 258.519 201.657 259.674 201.267 260.734L198.297 268.743C197.909 269.793 197.209 270.699 196.29 271.339C195.366 271.984 194.267 272.331 193.14 272.331V272.331Z" fill="#393E46"/>
<path d="M134.9 161.343C136.205 161.914 138.878 151.516 137.68 149.436C135.9 146.343 136.005 146.365 134.824 144.319C133.642 142.273 133.377 139.472 134.908 137.671C136.438 135.871 139.98 136.11 140.678 138.367C140.229 134.079 144.47 130.633 148.671 129.664C152.872 128.696 157.304 129.297 161.528 128.435C166.43 127.435 171.531 123.325 169.575 117.934C169.239 117.037 168.737 116.211 168.094 115.5C165.834 112.959 162.673 111.874 159.582 110.825C153.152 108.643 146.546 106.433 139.76 106.674C134.169 106.966 128.784 108.882 124.264 112.187C119.745 115.492 116.287 120.043 114.314 125.283C113.846 126.594 113.484 127.94 113.23 129.308C110.901 141.833 118.174 154.186 129.986 158.955L134.9 161.343Z" fill="#2F2E41"/>
<path opacity="0.2" d="M105.9 273.343L106.457 240.414L123.9 205.343L109.9 241.343L105.9 273.343Z" fill="black"/>
<path d="M264.077 355.982L190.439 325.387C188.825 324.722 187.384 323.698 186.225 322.392C185.066 321.086 184.221 319.533 183.753 317.851C183.272 316.15 183.185 314.361 183.499 312.622C183.814 310.882 184.521 309.237 185.567 307.811C204.165 282.204 216.474 252.578 221.498 221.331C221.77 219.585 222.437 217.923 223.448 216.473C224.459 215.022 225.787 213.822 227.332 212.962C228.854 212.107 230.551 211.611 232.294 211.51C234.037 211.41 235.78 211.709 237.39 212.383L311.028 242.979C313.568 244.043 315.647 245.973 316.896 248.427C318.145 250.88 318.483 253.697 317.849 256.377C309.617 289.867 296.308 321.9 278.384 351.363C276.933 353.702 274.698 355.451 272.078 356.297C269.458 357.143 266.623 357.031 264.077 355.982Z" fill="#E6E6E6"/>
<path d="M235.088 217.924C234.315 217.6 233.478 217.456 232.641 217.504C231.804 217.552 230.989 217.79 230.258 218.2C229.506 218.62 228.86 219.205 228.369 219.912C227.877 220.618 227.554 221.428 227.422 222.278C222.248 254.459 209.572 284.97 190.418 311.342C189.908 312.035 189.563 312.835 189.409 313.682C189.255 314.528 189.296 315.399 189.529 316.227L189.529 316.228C189.754 317.036 190.16 317.781 190.717 318.408C191.273 319.035 191.966 319.527 192.741 319.846L266.379 350.442C267.6 350.949 268.962 351.007 270.221 350.605C271.481 350.203 272.556 349.367 273.257 348.245C290.864 319.305 303.937 287.84 312.023 254.943C312.323 253.655 312.156 252.303 311.553 251.127C310.949 249.95 309.947 249.027 308.726 248.52L235.088 217.924Z" fill="white"/>
<path d="M274.297 286.031L235.655 269.976C234.186 269.364 233.021 268.195 232.414 266.725C231.807 265.254 231.807 263.603 232.416 262.134L233.316 259.968C233.928 258.5 235.097 257.335 236.567 256.727C238.038 256.12 239.689 256.121 241.158 256.73L279.801 272.785C281.269 273.397 282.435 274.566 283.042 276.037C283.649 277.507 283.648 279.158 283.039 280.628L282.14 282.793C281.528 284.261 280.358 285.427 278.888 286.034C277.418 286.641 275.767 286.64 274.297 286.031V286.031Z" fill="#393E46"/>
<path d="M262.93 313.39L224.288 297.335C222.819 296.723 221.654 295.553 221.047 294.083C220.44 292.613 220.441 290.962 221.049 289.492L221.949 287.327C222.561 285.859 223.73 284.693 225.2 284.086C226.671 283.479 228.322 283.479 229.791 284.088L268.434 300.144C269.902 300.755 271.068 301.925 271.675 303.395C272.282 304.865 272.281 306.516 271.672 307.986L270.773 310.151C270.161 311.62 268.992 312.785 267.521 313.392C266.051 313.999 264.4 313.999 262.93 313.39V313.39Z" fill="#393E46"/>
<path d="M289.781 247.582C289.203 247.582 288.63 247.469 288.094 247.251L249.156 231.509C248.05 231.06 247.168 230.192 246.702 229.093C246.236 227.995 246.225 226.757 246.671 225.65L249.669 218.233C250.117 217.127 250.985 216.244 252.084 215.778C253.183 215.312 254.422 215.301 255.528 215.749L294.466 231.491C295.572 231.94 296.454 232.808 296.92 233.906C297.386 235.005 297.397 236.243 296.951 237.35L293.953 244.767C293.616 245.597 293.039 246.309 292.296 246.81C291.553 247.312 290.678 247.58 289.781 247.582V247.582Z" fill="#CCCCCC"/>
<path d="M208 483.5H68C67.7348 483.5 67.4804 483.395 67.2929 483.207C67.1054 483.02 67 482.765 67 482.5C67 482.235 67.1054 481.98 67.2929 481.793C67.4804 481.605 67.7348 481.5 68 481.5H208C208.265 481.5 208.52 481.605 208.707 481.793C208.895 481.98 209 482.235 209 482.5C209 482.765 208.895 483.02 208.707 483.207C208.52 483.395 208.265 483.5 208 483.5Z" fill="#CCCCCC"/>
</g>
<defs>
<clipPath id="clip0">
<rect width="485.834" height="483.5" fill="white" transform="translate(67)"/>
</clipPath>
</defs>
</svg>
