<svg width="610" height="610" viewBox="0 0 610 610" fill="none" xmlns="http://www.w3.org/2000/svg">
<g clip-path="url(#clip0)">
<path d="M490.025 407.812C482.348 430.281 472.475 452.701 459.827 474.04C459.546 474.521 459.262 474.992 458.976 475.471L427.662 465.572C427.842 465.119 428.04 464.612 428.252 464.059C440.882 431.421 517.082 232.57 513.661 193.363C514.03 196.572 525.95 302.779 490.025 407.812Z" fill="#E6E6E6"/>
<path d="M465.868 475.95C465.442 476.385 465.006 476.816 464.566 477.238L441.075 469.812C441.393 469.428 441.763 468.976 442.188 468.464C449.145 459.975 469.828 434.556 490.025 407.812C511.73 379.071 532.877 348.804 535.841 336.366C535.246 339.195 516.71 425.288 465.868 475.95Z" fill="#E6E6E6"/>
<path d="M477.61 144.853C477.601 144.853 477.593 144.855 477.584 144.856V94.5397C477.584 89.0923 475.418 83.8679 471.563 80.0159C467.708 76.164 462.48 74 457.028 74H299.379C293.928 74 288.699 76.164 284.844 80.0159C280.99 83.8679 278.824 89.0923 278.824 94.5397V120.334C278.389 120.344 277.974 120.523 277.67 120.834C277.365 121.144 277.194 121.562 277.194 121.997V134.773C277.194 135.208 277.365 135.626 277.67 135.936C277.974 136.247 278.389 136.426 278.824 136.435V149.82H278.74C278.521 149.82 278.305 149.863 278.102 149.946C277.9 150.03 277.716 150.153 277.561 150.308C277.406 150.462 277.284 150.646 277.2 150.848C277.116 151.05 277.073 151.267 277.073 151.486V176.192C277.073 176.411 277.116 176.627 277.2 176.83C277.284 177.032 277.406 177.215 277.561 177.37C277.716 177.525 277.9 177.648 278.102 177.731C278.305 177.815 278.521 177.858 278.74 177.858H278.824V187.671H278.798C278.579 187.671 278.362 187.714 278.16 187.797C277.957 187.881 277.774 188.004 277.619 188.159C277.464 188.313 277.341 188.497 277.257 188.699C277.174 188.901 277.13 189.118 277.131 189.337V214.285C277.13 214.503 277.174 214.72 277.257 214.922C277.341 215.124 277.464 215.308 277.619 215.463C277.774 215.617 277.957 215.74 278.16 215.824C278.362 215.908 278.579 215.951 278.798 215.951H278.824V457.102C278.824 462.55 280.99 467.774 284.844 471.626C288.699 475.478 293.928 477.642 299.379 477.642H457.028C462.48 477.642 467.708 475.478 471.563 471.626C475.418 467.774 477.584 462.55 477.584 457.102V193.78C477.593 193.78 477.601 193.782 477.61 193.782C478 193.782 478.386 193.706 478.746 193.557C479.106 193.407 479.434 193.189 479.709 192.913C479.985 192.638 480.204 192.311 480.353 191.951C480.502 191.591 480.579 191.205 480.579 190.816V147.82C480.579 147.033 480.266 146.278 479.709 145.722C479.153 145.165 478.397 144.853 477.61 144.853Z" fill="#3F3D56"/>
<path d="M465.311 100.289V451.347C465.309 455.53 463.645 459.541 460.685 462.498C457.724 465.455 453.71 467.116 449.524 467.116H306.884C302.698 467.116 298.684 465.455 295.723 462.498C292.763 459.541 291.099 455.53 291.097 451.347V100.289C291.097 96.1054 292.761 92.0931 295.721 89.1348C298.682 86.1765 302.697 84.5145 306.884 84.5145H328.229V87.2827C328.23 90.7272 329.6 94.0301 332.038 96.4657C334.475 98.9013 337.781 100.27 341.228 100.272H413.798C417.24 100.264 420.539 98.8924 422.971 96.4573C425.402 94.0221 426.768 90.7227 426.768 87.2827V84.5433H449.524C453.706 84.5433 457.717 86.2013 460.677 89.1534C463.636 92.1055 465.303 96.1104 465.311 100.289V100.289Z" fill="white"/>
<path d="M234.009 270.985C233.165 270.659 232.261 270.521 231.358 270.582C230.456 270.643 229.577 270.901 228.785 271.337C227.993 271.774 227.307 272.379 226.774 273.109C226.242 273.84 225.876 274.678 225.702 275.565L174.872 303.182L183.809 313.233L231.014 282.962C232.525 283.154 234.054 282.786 235.311 281.927C236.568 281.069 237.466 279.779 237.835 278.303C238.205 276.826 238.019 275.266 237.314 273.917C236.608 272.568 235.433 271.525 234.009 270.985H234.009Z" fill="#FFB8B8"/>
<path d="M221.045 469.689L227.379 465.595L214.591 439.236L205.243 445.277L221.045 469.689Z" fill="#FFB8B8"/>
<path d="M243.399 463.577L223.492 476.443L218.517 468.758L231.02 460.677C232.984 459.408 235.371 458.97 237.658 459.46C239.944 459.95 241.943 461.328 243.213 463.29L243.399 463.577L243.399 463.577Z" fill="#2F2E41"/>
<path d="M149.978 470.641H157.521L161.111 441.568H149.978V470.641Z" fill="#FFB8B8"/>
<path d="M172.069 477.64H148.362V468.488H163.252C164.41 468.488 165.556 468.716 166.626 469.158C167.696 469.601 168.668 470.25 169.487 471.068C170.305 471.886 170.955 472.858 171.398 473.927C171.841 474.995 172.069 476.141 172.069 477.298V477.64V477.64Z" fill="#2F2E41"/>
<path d="M323.044 130.971H307.494C307.112 130.971 306.746 130.819 306.476 130.549C306.205 130.279 306.054 129.913 306.054 129.532C306.054 129.15 306.205 128.784 306.476 128.514C306.746 128.245 307.112 128.093 307.494 128.093H323.044C323.426 128.093 323.792 128.245 324.062 128.514C324.332 128.784 324.484 129.15 324.484 129.532C324.484 129.913 324.332 130.279 324.062 130.549C323.792 130.819 323.426 130.971 323.044 130.971V130.971Z" fill="#3F3D56"/>
<path d="M323.044 134.999H307.494C307.112 134.999 306.746 134.847 306.476 134.578C306.205 134.308 306.054 133.942 306.054 133.56C306.054 133.179 306.205 132.813 306.476 132.543C306.746 132.273 307.112 132.121 307.494 132.121H323.044C323.426 132.121 323.792 132.273 324.062 132.543C324.332 132.813 324.484 133.179 324.484 133.56C324.484 133.942 324.332 134.308 324.062 134.578C323.792 134.847 323.426 134.999 323.044 134.999V134.999Z" fill="#3F3D56"/>
<path d="M323.044 139.028H307.494C307.112 139.028 306.746 138.876 306.476 138.606C306.205 138.336 306.054 137.97 306.054 137.589C306.054 137.207 306.205 136.841 306.476 136.571C306.746 136.302 307.112 136.15 307.494 136.15H323.044C323.426 136.15 323.792 136.302 324.062 136.571C324.332 136.841 324.484 137.207 324.484 137.589C324.484 137.97 324.332 138.336 324.062 138.606C323.792 138.876 323.426 139.028 323.044 139.028V139.028Z" fill="#3F3D56"/>
<path d="M443.586 135.028H443.062L442.86 134.861C443.522 134.072 443.885 133.076 443.885 132.047C443.881 131.2 443.625 130.373 443.15 129.672C442.676 128.97 442.003 128.425 441.219 128.105C440.434 127.785 439.572 127.705 438.742 127.875C437.911 128.044 437.15 128.456 436.554 129.058C435.958 129.66 435.554 130.426 435.393 131.257C435.232 132.088 435.322 132.949 435.65 133.729C435.979 134.51 436.531 135.176 437.239 135.643C437.946 136.109 438.776 136.356 439.623 136.351C440.65 136.344 441.643 135.982 442.434 135.327L442.63 135.494V136.023L445.936 139.333L446.926 138.343L443.586 135.028ZM439.623 135.028C439.033 135.03 438.456 134.857 437.964 134.532C437.472 134.206 437.088 133.742 436.86 133.198C436.632 132.654 436.57 132.055 436.683 131.476C436.796 130.898 437.078 130.365 437.494 129.947C437.909 129.528 438.44 129.242 439.018 129.125C439.597 129.008 440.197 129.065 440.743 129.288C441.289 129.512 441.756 129.892 442.086 130.381C442.416 130.87 442.593 131.446 442.595 132.035L442.595 132.047C442.597 132.436 442.523 132.822 442.376 133.182C442.229 133.543 442.012 133.871 441.738 134.147C441.465 134.424 441.139 134.644 440.78 134.795C440.421 134.947 440.036 135.025 439.646 135.028C439.639 135.028 439.631 135.028 439.623 135.028H439.623Z" fill="#3F3D56"/>
<path d="M354.725 183.917H326.788C325.108 183.917 323.496 183.25 322.308 182.063C321.12 180.876 320.453 179.265 320.453 177.586C320.453 175.907 321.12 174.297 322.308 173.11C323.496 171.923 325.108 171.256 326.788 171.256H354.725C356.405 171.256 358.016 171.923 359.204 173.11C360.393 174.297 361.06 175.907 361.06 177.586C361.06 179.265 360.393 180.876 359.204 182.063C358.016 183.25 356.405 183.917 354.725 183.917V183.917Z" fill="#393E46"/>
<path d="M440.25 197.729H323.908C322.992 197.729 322.113 197.365 321.465 196.718C320.817 196.07 320.453 195.192 320.453 194.276C320.453 193.36 320.817 192.482 321.465 191.834C322.113 191.187 322.992 190.823 323.908 190.823H440.25C441.166 190.823 442.045 191.187 442.694 191.834C443.342 192.482 443.706 193.36 443.706 194.276C443.706 195.192 443.342 196.07 442.694 196.718C442.045 197.365 441.166 197.729 440.25 197.729Z" fill="#E6E6E6"/>
<path d="M366.644 211.541H323.908C322.992 211.541 322.113 211.177 321.465 210.53C320.817 209.882 320.453 209.004 320.453 208.088C320.453 207.172 320.817 206.294 321.465 205.646C322.113 204.999 322.992 204.635 323.908 204.635H366.644C367.56 204.635 368.439 204.999 369.087 205.646C369.735 206.294 370.099 207.172 370.099 208.088C370.099 209.004 369.735 209.882 369.087 210.53C368.439 211.177 367.56 211.541 366.644 211.541Z" fill="#E6E6E6"/>
<path d="M354.725 337.001H326.788C325.108 337.001 323.496 336.334 322.308 335.147C321.12 333.96 320.453 332.35 320.453 330.671C320.453 328.992 321.12 327.382 322.308 326.194C323.496 325.007 325.108 324.34 326.788 324.34H354.725C356.405 324.34 358.016 325.007 359.204 326.194C360.393 327.382 361.06 328.992 361.06 330.671C361.06 332.35 360.393 333.96 359.204 335.147C358.016 336.334 356.405 337.001 354.725 337.001V337.001Z" fill="#393E46"/>
<path d="M440.25 350.813H323.908C322.992 350.813 322.113 350.45 321.465 349.802C320.817 349.154 320.453 348.276 320.453 347.36C320.453 346.445 320.817 345.566 321.465 344.919C322.113 344.271 322.992 343.907 323.908 343.907H440.25C441.166 343.907 442.045 344.271 442.694 344.919C443.342 345.566 443.706 346.445 443.706 347.36C443.706 348.276 443.342 349.154 442.694 349.802C442.045 350.45 441.166 350.813 440.25 350.813V350.813Z" fill="#E6E6E6"/>
<path d="M366.644 364.626H323.908C322.992 364.626 322.113 364.262 321.465 363.614C320.817 362.967 320.453 362.088 320.453 361.173C320.453 360.257 320.817 359.378 321.465 358.731C322.113 358.083 322.992 357.719 323.908 357.719H366.644C367.56 357.719 368.439 358.083 369.087 358.731C369.735 359.378 370.099 360.257 370.099 361.173C370.099 362.088 369.735 362.967 369.087 363.614C368.439 364.262 367.56 364.626 366.644 364.626V364.626Z" fill="#E6E6E6"/>
<path d="M354.725 407.788H326.788C325.108 407.788 323.496 407.121 322.308 405.934C321.12 404.747 320.453 403.137 320.453 401.458C320.453 399.779 321.12 398.169 322.308 396.981C323.496 395.794 325.108 395.127 326.788 395.127H354.725C356.405 395.127 358.016 395.794 359.204 396.981C360.393 398.169 361.06 399.779 361.06 401.458C361.06 403.137 360.393 404.747 359.204 405.934C358.016 407.121 356.405 407.788 354.725 407.788V407.788Z" fill="#393E46"/>
<path d="M440.25 421.6H323.908C322.992 421.6 322.113 421.237 321.465 420.589C320.817 419.942 320.453 419.063 320.453 418.147C320.453 417.232 320.817 416.353 321.465 415.706C322.113 415.058 322.992 414.694 323.908 414.694H440.25C441.166 414.694 442.045 415.058 442.694 415.706C443.342 416.353 443.706 417.232 443.706 418.147C443.706 419.063 443.342 419.942 442.694 420.589C442.045 421.237 441.166 421.6 440.25 421.6V421.6Z" fill="#E6E6E6"/>
<path d="M366.644 435.413H323.908C322.992 435.413 322.113 435.049 321.465 434.401C320.817 433.754 320.453 432.875 320.453 431.96C320.453 431.044 320.817 430.166 321.465 429.518C322.113 428.87 322.992 428.507 323.908 428.507H366.644C367.56 428.507 368.439 428.87 369.087 429.518C369.735 430.166 370.099 431.044 370.099 431.96C370.099 432.875 369.735 433.754 369.087 434.401C368.439 435.049 367.56 435.413 366.644 435.413V435.413Z" fill="#E6E6E6"/>
<path d="M456.665 301.032H234.348C233.05 301.031 231.806 300.515 230.888 299.598C229.97 298.681 229.454 297.437 229.453 296.14V235.712C229.454 234.415 229.97 233.172 230.888 232.255C231.806 231.338 233.05 230.822 234.348 230.821H456.665C457.962 230.822 459.207 231.338 460.125 232.255C461.042 233.172 461.559 234.415 461.56 235.712V296.14C461.559 297.437 461.042 298.681 460.125 299.598C459.207 300.515 457.962 301.031 456.665 301.032V301.032Z" fill="#393E46"/>
<path d="M154.425 372.924C156.55 387.824 145.296 453.835 146.546 453.829L162.707 453.743C163.283 452.638 170.701 417.02 173.028 411.305C176.276 403.374 179.553 395.346 180.832 386.875C182.036 378.921 181.442 370.818 180.659 362.813C180.695 362.575 180.675 362.331 180.598 362.103C180.522 361.874 180.393 361.667 180.22 361.498C180.048 361.33 179.838 361.204 179.608 361.133C179.378 361.061 179.134 361.045 178.897 361.086L157.212 359.97C152.743 359.74 151.683 358.761 152.363 363.147C152.835 366.421 153.952 369.609 154.425 372.924Z" fill="#2F2E41"/>
<path d="M158.687 336.696C154.281 343.027 149.661 350.313 151.124 357.892C152.236 363.647 156.625 368.107 160.766 372.28C177.319 388.889 209.958 462.174 209.958 462.174C225.709 452.102 209.582 462.461 225.566 451.815C224.149 451.705 191.959 336.081 189.292 335.925C178.505 335.211 169.198 334.158 158.687 336.696Z" fill="#2F2E41"/>
<path d="M176.114 276.441C173.876 274.447 158.149 268.297 158.149 268.297C157.86 268.259 157.566 268.268 157.28 268.323C156.385 268.549 155.976 269.66 156.168 270.559C156.359 271.458 154.79 286.227 154.386 292.943C153.678 304.664 160.586 331.216 160.525 332.028C160.289 334.923 159.02 337.637 156.95 339.677C157.488 340.344 191.659 341.683 193.984 342.473C194.453 341.878 191.338 299.763 191.194 297.384C190.955 293.772 179.068 279.176 176.114 276.441Z" fill="#E6E6E6"/>
<path d="M151.741 367.824C152.551 367.422 153.263 366.847 153.826 366.139C154.389 365.432 154.79 364.61 155.001 363.731C155.212 362.852 155.228 361.938 155.047 361.052C154.866 360.167 154.493 359.332 153.954 358.606L168.372 278.875L154.917 278.698L144.905 357.541C143.745 358.527 142.986 359.903 142.774 361.41C142.561 362.917 142.91 364.449 143.752 365.717C144.595 366.984 145.874 367.899 147.346 368.288C148.818 368.676 150.382 368.511 151.741 367.824H151.741Z" fill="#FFB8B8"/>
<path d="M151.625 284.791C151.064 284.832 150.505 284.687 150.036 284.377C149.235 283.692 155.767 273.212 157.057 273.057C161.255 272.574 165.575 272.412 169.647 273.546C173.719 274.68 177.549 277.258 179.369 281.074C180.129 282.662 174.617 290.656 172.112 289.482C169.111 288.078 155.576 284.889 151.625 284.791Z" fill="#E6E6E6"/>
<path d="M166.445 267.438C174.791 267.438 181.557 260.677 181.557 252.338C181.557 243.998 174.791 237.237 166.445 237.237C158.099 237.237 151.333 243.998 151.333 252.338C151.333 260.677 158.099 267.438 166.445 267.438Z" fill="#FFB8B8"/>
<path d="M151.601 277.305C153.701 277.525 155.823 277.214 157.772 276.403C159.721 275.591 161.436 274.305 162.758 272.66C164.081 271.015 164.97 269.066 165.344 266.989C165.717 264.912 165.564 262.775 164.898 260.773C164.296 258.967 163.291 257.311 162.74 255.488C162.189 253.665 162.174 251.51 163.396 250.049C165.786 247.189 170.392 248.988 174.077 248.419C178.003 247.814 181.015 244.05 181.329 240.093C181.643 236.136 179.579 232.22 176.507 229.704C173.434 227.188 169.471 225.949 165.517 225.561C160.44 225.063 155.32 225.879 150.65 227.931C145.98 229.983 141.917 233.202 138.853 237.278C135.788 241.354 133.826 246.15 133.155 251.203C132.483 256.257 133.125 261.398 135.018 266.132C136.67 270.261 139.368 274.107 143.2 276.369C147.032 278.631 152.093 279.065 155.913 276.782" fill="#2F2E41"/>
<path d="M313.413 258.445H274.793C272.34 258.445 270.345 255.605 270.345 252.114C270.345 248.624 272.34 245.784 274.793 245.784H313.413C315.865 245.784 317.861 248.624 317.861 252.114C317.861 255.605 315.865 258.445 313.413 258.445Z" fill="white"/>
<path d="M417.212 272.257H273.801C272.884 272.257 272.005 271.893 271.357 271.246C270.709 270.598 270.345 269.72 270.345 268.804C270.345 267.888 270.709 267.01 271.357 266.362C272.005 265.715 272.884 265.351 273.801 265.351H417.212C418.129 265.351 419.007 265.715 419.656 266.362C420.304 267.01 420.668 267.888 420.668 268.804C420.668 269.72 420.304 270.598 419.656 271.246C419.007 271.893 418.129 272.257 417.212 272.257V272.257Z" fill="#E6E6E6"/>
<path d="M343.606 286.069H273.801C272.884 286.069 272.005 285.705 271.357 285.058C270.709 284.41 270.345 283.532 270.345 282.616C270.345 281.7 270.709 280.822 271.357 280.174C272.005 279.527 272.884 279.163 273.801 279.163H343.606C344.522 279.163 345.401 279.527 346.049 280.174C346.697 280.822 347.062 281.7 347.062 282.616C347.062 283.532 346.697 284.41 346.049 285.058C345.401 285.705 344.522 286.069 343.606 286.069V286.069Z" fill="#E6E6E6"/>
<path d="M554 476.849H99V478H554V476.849Z" fill="#3F3D56"/>
</g>
<circle cx="305" cy="305" r="305" fill="#AAD8D3" fill-opacity="0.12"/>
<defs>
<clipPath id="clip0">
<rect width="455" height="404" fill="white" transform="translate(99 74)"/>
</clipPath>
</defs>
</svg>
