<svg width="610" height="610" viewBox="0 0 610 610" fill="none" xmlns="http://www.w3.org/2000/svg">
<circle cx="305" cy="305" r="305" fill="#AAD8D3" fill-opacity="0.12"/>
<g clip-path="url(#clip0)">
<path d="M238.257 345.134L131.441 367.609C128.354 368.255 125.136 367.653 122.494 365.933C119.852 364.214 118.001 361.519 117.347 358.439L99.0174 271.633C98.3704 268.552 98.9742 265.34 100.696 262.703C102.419 260.065 105.119 258.217 108.204 257.564L215.02 235.089C218.107 234.443 221.325 235.046 223.967 236.765C226.609 238.484 228.46 241.18 229.114 244.26L247.444 331.065C248.091 334.147 247.487 337.359 245.765 339.996C244.042 342.634 241.342 344.481 238.257 345.134V345.134ZM108.493 258.931C105.77 259.507 103.388 261.138 101.868 263.465C100.349 265.792 99.8159 268.626 100.387 271.345L118.716 358.151C119.293 360.868 120.927 363.247 123.258 364.764C125.589 366.28 128.428 366.812 131.152 366.242L237.968 343.767C240.691 343.191 243.073 341.561 244.593 339.233C246.112 336.906 246.645 334.072 246.074 331.353L227.745 244.548C227.168 241.83 225.534 239.452 223.203 237.935C220.872 236.418 218.033 235.886 215.309 236.456L108.493 258.931Z" fill="#3F3D56"/>
<path d="M208.384 263.711L154.475 275.054C154.003 275.164 153.507 275.09 153.088 274.848C152.668 274.607 152.356 274.215 152.215 273.753C152.15 273.512 152.136 273.26 152.172 273.013C152.208 272.766 152.294 272.529 152.425 272.316C152.556 272.104 152.728 271.92 152.933 271.776C153.137 271.632 153.369 271.531 153.614 271.48L208.489 259.933C210.632 261.139 209.955 263.381 208.383 263.712L208.384 263.711Z" fill="#CCCCCC"/>
<path d="M210.377 273.151L156.468 284.494C155.996 284.603 155.501 284.529 155.081 284.288C154.662 284.046 154.35 283.655 154.208 283.192C154.144 282.951 154.129 282.699 154.165 282.452C154.201 282.205 154.287 281.968 154.418 281.756C154.549 281.543 154.722 281.359 154.926 281.215C155.131 281.071 155.362 280.971 155.607 280.919L210.483 269.373C212.625 270.578 211.948 272.82 210.376 273.151L210.377 273.151Z" fill="#CCCCCC"/>
<path d="M145.949 292.32L129.496 295.782C128.959 295.894 128.399 295.789 127.939 295.49C127.479 295.191 127.157 294.722 127.043 294.186L122.951 274.805C122.838 274.268 122.943 273.709 123.243 273.25C123.543 272.791 124.013 272.469 124.55 272.356L141.002 268.894C141.54 268.782 142.1 268.887 142.56 269.186C143.019 269.485 143.342 269.954 143.456 270.49L147.548 289.871C147.661 290.408 147.556 290.967 147.256 291.426C146.956 291.885 146.486 292.207 145.949 292.32V292.32Z" fill="#CCCCCC"/>
<path d="M214.301 292.511L132.026 309.822C131.554 309.931 131.059 309.858 130.639 309.616C130.22 309.375 129.908 308.983 129.766 308.521C129.702 308.279 129.687 308.028 129.723 307.781C129.759 307.534 129.845 307.297 129.976 307.084C130.107 306.871 130.28 306.687 130.484 306.543C130.689 306.4 130.92 306.299 131.165 306.247L214.407 288.732C216.55 289.938 215.873 292.18 214.301 292.511V292.511Z" fill="#CCCCCC"/>
<path d="M216.295 301.953L134.02 319.264C133.548 319.373 133.052 319.3 132.633 319.058C132.214 318.817 131.902 318.425 131.76 317.963C131.696 317.722 131.681 317.47 131.717 317.223C131.753 316.976 131.839 316.739 131.97 316.526C132.101 316.313 132.274 316.129 132.478 315.986C132.682 315.842 132.914 315.741 133.159 315.69L216.401 298.175C218.544 299.38 217.867 301.622 216.295 301.953V301.953Z" fill="#CCCCCC"/>
<path d="M218.287 311.388L136.012 328.7C135.541 328.809 135.045 328.736 134.625 328.494C134.206 328.252 133.894 327.861 133.753 327.398C133.688 327.157 133.673 326.906 133.709 326.659C133.745 326.412 133.831 326.174 133.962 325.962C134.093 325.749 134.266 325.565 134.47 325.421C134.675 325.278 134.907 325.177 135.151 325.125L218.394 307.61C220.536 308.816 219.859 311.058 218.287 311.388H218.287Z" fill="#CCCCCC"/>
<path d="M220.281 320.83L138.006 338.141C137.534 338.251 137.039 338.177 136.619 337.935C136.2 337.694 135.888 337.302 135.746 336.84C135.682 336.599 135.667 336.347 135.703 336.1C135.739 335.853 135.825 335.616 135.956 335.403C136.087 335.19 136.26 335.007 136.464 334.863C136.668 334.719 136.9 334.618 137.145 334.567L220.387 317.052C222.53 318.257 221.853 320.499 220.281 320.83V320.83Z" fill="#CCCCCC"/>
<path d="M222.273 330.266L139.999 347.578C139.527 347.687 139.031 347.614 138.612 347.372C138.192 347.13 137.88 346.739 137.739 346.276C137.674 346.035 137.659 345.784 137.695 345.536C137.732 345.289 137.818 345.052 137.948 344.84C138.079 344.627 138.252 344.443 138.457 344.299C138.661 344.156 138.893 344.055 139.137 344.003L222.38 326.488C224.523 327.694 223.845 329.936 222.273 330.266V330.266Z" fill="#CCCCCC"/>
<path d="M235.397 287.051C235.21 287.389 235.05 287.742 234.919 288.105L201.237 296.449L195.377 290.398L185.073 298.032L194.403 309.75C195.157 310.697 196.198 311.374 197.37 311.68C198.542 311.985 199.782 311.903 200.904 311.446L237.452 296.538C238.653 297.421 240.095 297.917 241.586 297.962C243.077 298.007 244.546 297.597 245.799 296.788C247.051 295.978 248.026 294.808 248.596 293.432C249.165 292.055 249.301 290.539 248.986 289.083C248.671 287.628 247.919 286.303 246.831 285.284C245.743 284.266 244.37 283.602 242.895 283.381C241.42 283.16 239.912 283.393 238.573 284.049C237.234 284.704 236.126 285.751 235.397 287.051L235.397 287.051Z" fill="#FFB8B8"/>
<path d="M120.428 361.299C121.478 360.975 122.444 360.426 123.258 359.689C124.073 358.952 124.715 358.046 125.141 357.034C125.566 356.023 125.764 354.931 125.721 353.834C125.678 352.738 125.395 351.665 124.891 350.69L148.07 286.378L131.973 283.53L114.251 347.642C112.666 348.595 111.486 350.096 110.935 351.859C110.385 353.622 110.501 355.526 111.263 357.209C112.024 358.893 113.378 360.239 115.067 360.993C116.756 361.746 118.664 361.855 120.428 361.299V361.299Z" fill="#FFB8B8"/>
<path d="M145.127 297.794L129.233 291.705C128.781 291.532 128.371 291.263 128.033 290.918C127.694 290.572 127.433 290.158 127.269 289.703C127.105 289.248 127.042 288.763 127.082 288.282C127.123 287.8 127.267 287.332 127.505 286.911L135.843 272.154C136.744 269.851 138.524 267.998 140.792 267.002C143.06 266.006 145.631 265.948 147.941 266.841C150.252 267.734 152.114 269.505 153.118 271.766C154.123 274.026 154.189 276.593 153.302 278.902L149.624 295.385C149.519 295.857 149.313 296.301 149.02 296.686C148.727 297.071 148.355 297.389 147.928 297.618C147.501 297.846 147.03 297.98 146.547 298.011C146.063 298.041 145.579 297.967 145.127 297.794V297.794Z" fill="#393E46"/>
<path d="M181 482.041H189.579L193.66 449.009L180.999 449.01L181 482.041Z" fill="#FFB8B8"/>
<path d="M178.812 479.246L195.707 479.245H195.707C197.121 479.245 198.521 479.523 199.828 480.063C201.134 480.603 202.321 481.395 203.321 482.393C204.321 483.391 205.114 484.576 205.655 485.88C206.196 487.184 206.474 488.581 206.474 489.993V490.342L178.812 490.343L178.812 479.246Z" fill="#2F2E41"/>
<path d="M132.716 482.041H141.295L145.377 449.009L132.715 449.01L132.716 482.041Z" fill="#FFB8B8"/>
<path d="M130.528 479.246L147.423 479.245H147.424C148.838 479.245 150.238 479.523 151.544 480.063C152.85 480.603 154.037 481.395 155.037 482.393C156.037 483.391 156.83 484.576 157.371 485.88C157.912 487.184 158.191 488.581 158.19 489.993V490.342L130.528 490.343L130.528 479.246Z" fill="#2F2E41"/>
<path d="M141.71 468.747H130.853C130.427 468.746 130.006 468.66 129.614 468.493C129.222 468.325 128.869 468.08 128.575 467.772C128.281 467.464 128.052 467.1 127.903 466.702C127.754 466.303 127.688 465.879 127.708 465.454L132.865 354.854L133.19 354.845L185.616 353.481L195.875 464.144C195.914 464.559 195.87 464.977 195.746 465.375C195.622 465.773 195.42 466.143 195.152 466.462C194.884 466.781 194.554 467.044 194.183 467.235C193.812 467.426 193.407 467.541 192.991 467.575L180.797 468.548C180.031 468.609 179.269 468.388 178.654 467.927C178.04 467.466 177.615 466.797 177.461 466.046L161.863 387.268C161.82 387.029 161.693 386.813 161.504 386.659C161.316 386.505 161.078 386.424 160.835 386.431H160.831C160.586 386.425 160.348 386.508 160.16 386.663C159.971 386.818 159.845 387.036 159.804 387.276L144.8 466.21C144.658 466.924 144.272 467.567 143.709 468.03C143.146 468.492 142.439 468.745 141.71 468.747V468.747Z" fill="#2F2E41"/>
<path d="M161.597 256.213C171.089 256.213 178.784 248.532 178.784 239.057C178.784 229.582 171.089 221.9 161.597 221.9C152.105 221.9 144.41 229.582 144.41 239.057C144.41 248.532 152.105 256.213 161.597 256.213Z" fill="#FFB8B8"/>
<path d="M155.834 367.815C147.642 367.815 139.228 365.666 132.253 359.311C131.882 358.975 131.596 358.556 131.417 358.089C131.238 357.622 131.173 357.119 131.225 356.622C131.972 349.926 135.593 315.352 133.554 292.257C133.156 287.943 133.767 283.596 135.341 279.558C136.914 275.521 139.406 271.904 142.62 268.992C145.777 266.088 149.567 263.955 153.692 262.763C157.816 261.571 162.161 261.352 166.385 262.123H166.385C166.599 262.161 166.813 262.202 167.027 262.242C180.787 264.901 190.348 277.613 189.266 291.812C187.687 312.53 186.272 340.555 188.494 356.403C188.586 357.052 188.473 357.713 188.17 358.293C187.867 358.874 187.389 359.346 186.804 359.642C181.749 362.192 169.082 367.815 155.834 367.815Z" fill="#393E46"/>
<path d="M178.261 299.029C177.858 298.761 177.517 298.409 177.262 297.998C177.008 297.587 176.845 297.126 176.785 296.646L174.691 279.888C174.026 277.505 174.335 274.956 175.55 272.8C176.766 270.644 178.788 269.057 181.173 268.387C183.559 267.717 186.113 268.018 188.276 269.225C190.439 270.432 192.035 272.446 192.713 274.825L199.61 290.305C199.807 290.747 199.906 291.226 199.901 291.71C199.895 292.193 199.785 292.67 199.579 293.107C199.372 293.544 199.074 293.932 198.704 294.244C198.334 294.556 197.9 294.784 197.434 294.914L181.033 299.47C180.566 299.6 180.077 299.628 179.599 299.551C179.12 299.475 178.664 299.297 178.261 299.029V299.029Z" fill="#393E46"/>
<path d="M155.597 255.971C153.97 256.001 152.354 255.709 150.841 255.112C150.175 254.856 149.484 254.646 148.819 254.389C142.951 252.126 139.085 245.887 138.946 239.608C138.808 233.329 142.065 227.235 146.902 223.219C151.739 219.203 158.004 217.141 164.277 216.664C171.035 216.15 178.644 217.861 182.42 223.478C183.425 224.974 184.128 226.788 183.532 228.593C183.354 229.138 183.035 229.627 182.608 230.01C180.922 231.508 179.241 230.382 177.522 230.282C175.159 230.145 173.037 232.055 172.274 234.291C171.511 236.528 171.847 238.99 172.463 241.271C172.932 242.644 173.228 244.069 173.343 245.515C173.393 246.24 173.256 246.966 172.946 247.623C172.636 248.281 172.163 248.848 171.572 249.272C170.096 250.163 168.157 249.647 166.679 248.758C165.202 247.869 163.926 246.632 162.33 245.977C160.734 245.323 158.59 245.468 157.661 246.919C157.366 247.447 157.166 248.023 157.071 248.62C156.239 252.407 156.43 252.184 155.597 255.971V255.971Z" fill="#2F2E41"/>
<path d="M393.657 232.544H284.493C281.339 232.541 278.316 231.288 276.085 229.062C273.855 226.836 272.601 223.817 272.597 220.669V131.956C272.601 128.807 273.855 125.789 276.085 123.563C278.316 121.337 281.339 120.084 284.493 120.081H393.657C396.811 120.084 399.834 121.337 402.065 123.563C404.295 125.789 405.549 128.807 405.553 131.956V220.669C405.549 223.817 404.295 226.836 402.065 229.062C399.834 231.288 396.811 232.541 393.657 232.544V232.544ZM284.493 121.478C281.71 121.481 279.042 122.586 277.075 124.55C275.107 126.515 274 129.178 273.997 131.956V220.669C274 223.447 275.107 226.11 277.075 228.075C279.042 230.039 281.71 231.144 284.493 231.147H393.657C396.44 231.144 399.108 230.039 401.075 228.075C403.043 226.11 404.15 223.447 404.153 220.669V131.956C404.15 129.178 403.043 126.515 401.075 124.55C399.108 122.586 396.44 121.481 393.657 121.478H284.493Z" fill="#3F3D56"/>
<path d="M381.249 146.721H326.156C325.671 146.731 325.201 146.557 324.841 146.234C324.48 145.912 324.256 145.464 324.213 144.983C324.2 144.733 324.237 144.484 324.324 144.25C324.41 144.015 324.543 143.801 324.715 143.62C324.887 143.439 325.094 143.294 325.324 143.196C325.554 143.097 325.801 143.046 326.051 143.046H382.133C383.981 144.667 382.855 146.721 381.248 146.721L381.249 146.721Z" fill="#CCCCCC"/>
<path d="M381.249 156.368H326.156C325.671 156.378 325.201 156.204 324.841 155.881C324.48 155.558 324.256 155.111 324.213 154.629C324.2 154.38 324.237 154.131 324.324 153.896C324.41 153.662 324.543 153.448 324.715 153.267C324.887 153.086 325.094 152.941 325.324 152.843C325.554 152.744 325.801 152.693 326.051 152.693H382.133C383.981 154.314 382.855 156.368 381.248 156.368L381.249 156.368Z" fill="#CCCCCC"/>
<path d="M314.246 161.861H297.432C296.883 161.86 296.356 161.642 295.968 161.255C295.58 160.867 295.362 160.342 295.361 159.794V139.987C295.362 139.439 295.58 138.913 295.968 138.526C296.356 138.138 296.883 137.92 297.432 137.92H314.246C314.794 137.921 315.321 138.139 315.709 138.526C316.097 138.914 316.315 139.439 316.316 139.987V159.794C316.316 160.342 316.097 160.867 315.709 161.255C315.321 161.642 314.795 161.86 314.246 161.861V161.861Z" fill="#3F3D56"/>
<path d="M381.089 176.12H297.006C296.522 176.13 296.052 175.955 295.691 175.633C295.331 175.31 295.107 174.863 295.064 174.381C295.05 174.132 295.088 173.882 295.174 173.648C295.261 173.414 295.394 173.2 295.566 173.018C295.738 172.837 295.945 172.693 296.175 172.594C296.404 172.496 296.652 172.445 296.902 172.445H381.973C383.821 174.065 382.695 176.12 381.089 176.12V176.12Z" fill="#CCCCCC"/>
<path d="M381.089 185.769H297.006C296.522 185.779 296.052 185.605 295.691 185.282C295.331 184.959 295.107 184.512 295.064 184.031C295.05 183.781 295.088 183.532 295.174 183.298C295.261 183.063 295.394 182.849 295.566 182.668C295.738 182.487 295.945 182.342 296.175 182.244C296.404 182.145 296.652 182.094 296.902 182.094H381.973C383.821 183.715 382.695 185.769 381.089 185.769V185.769Z" fill="#CCCCCC"/>
<path d="M381.089 195.412H297.006C296.522 195.422 296.052 195.248 295.691 194.925C295.331 194.603 295.107 194.155 295.064 193.674C295.05 193.424 295.088 193.175 295.174 192.941C295.261 192.707 295.394 192.492 295.566 192.311C295.738 192.13 295.945 191.986 296.175 191.887C296.404 191.788 296.652 191.737 296.902 191.737H381.973C383.821 193.358 382.695 195.412 381.089 195.412V195.412Z" fill="#CCCCCC"/>
<path d="M381.089 205.061H297.006C296.522 205.071 296.052 204.897 295.691 204.574C295.331 204.251 295.107 203.804 295.064 203.323C295.05 203.073 295.088 202.824 295.174 202.59C295.261 202.355 295.394 202.141 295.566 201.96C295.738 201.779 295.945 201.634 296.175 201.536C296.404 201.437 296.652 201.386 296.902 201.386H381.973C383.821 203.007 382.695 205.061 381.089 205.061V205.061Z" fill="#CCCCCC"/>
<path d="M381.089 214.705H297.006C296.522 214.715 296.052 214.541 295.691 214.218C295.331 213.895 295.107 213.448 295.064 212.966C295.05 212.717 295.088 212.468 295.174 212.234C295.261 211.999 295.394 211.785 295.566 211.604C295.738 211.423 295.945 211.278 296.175 211.18C296.404 211.081 296.652 211.03 296.902 211.03H381.973C383.821 212.651 382.695 214.705 381.089 214.705Z" fill="#CCCCCC"/>
<path d="M369.865 111C370.792 111.001 371.682 111.369 372.338 112.024C372.994 112.679 373.362 113.567 373.364 114.493V125.669C373.362 126.595 372.994 127.483 372.338 128.138C371.682 128.792 370.792 129.161 369.865 129.162H308.285C307.358 129.161 306.468 128.792 305.812 128.138C305.157 127.483 304.788 126.595 304.786 125.669V114.493C304.788 113.567 305.157 112.679 305.812 112.024C306.468 111.369 307.358 111.001 308.285 111" fill="#393E46"/>
<path d="M551.104 342.213H441.941C438.787 342.21 435.763 340.957 433.533 338.731C431.303 336.505 430.048 333.487 430.045 330.338V241.625C430.048 238.477 431.303 235.458 433.533 233.232C435.763 231.006 438.787 229.754 441.941 229.75H551.104C554.258 229.754 557.282 231.006 559.512 233.232C561.742 235.458 562.996 238.477 563 241.625V330.338C562.996 333.487 561.742 336.505 559.512 338.731C557.282 340.957 554.258 342.21 551.104 342.213ZM441.941 231.147C439.158 231.15 436.49 232.255 434.522 234.219C432.554 236.184 431.447 238.847 431.444 241.625V330.338C431.447 333.116 432.554 335.779 434.522 337.744C436.49 339.708 439.158 340.813 441.941 340.816H551.104C553.887 340.813 556.555 339.708 558.523 337.744C560.49 335.779 561.597 333.116 561.6 330.338V241.625C561.597 238.847 560.49 236.184 558.523 234.219C556.555 232.255 553.887 231.15 551.104 231.147H441.941Z" fill="#3F3D56"/>
<path d="M538.696 256.391H483.603C483.119 256.4 482.649 256.226 482.288 255.904C481.928 255.581 481.703 255.133 481.66 254.652C481.647 254.403 481.685 254.153 481.771 253.919C481.857 253.685 481.99 253.47 482.162 253.289C482.334 253.108 482.542 252.964 482.771 252.865C483.001 252.766 483.249 252.716 483.499 252.716H539.58C541.428 254.336 540.302 256.391 538.695 256.391H538.696Z" fill="#3F3D56"/>
<path d="M538.696 266.037H483.603C483.119 266.047 482.649 265.873 482.288 265.55C481.928 265.227 481.703 264.78 481.66 264.299C481.647 264.049 481.685 263.8 481.771 263.566C481.857 263.331 481.99 263.117 482.162 262.936C482.334 262.755 482.542 262.61 482.771 262.512C483.001 262.413 483.249 262.362 483.499 262.362H539.58C541.428 263.983 540.302 266.037 538.695 266.037H538.696Z" fill="#3F3D56"/>
<path d="M471.693 271.53H454.879C454.33 271.529 453.803 271.311 453.415 270.924C453.027 270.536 452.809 270.011 452.808 269.463V249.656C452.809 249.108 453.027 248.583 453.415 248.195C453.803 247.808 454.33 247.59 454.879 247.589H471.693C472.242 247.59 472.768 247.808 473.156 248.195C473.544 248.583 473.763 249.108 473.763 249.656V269.463C473.763 270.011 473.545 270.536 473.156 270.924C472.768 271.311 472.242 271.529 471.693 271.53V271.53Z" fill="#CCCCCC"/>
<path d="M538.171 325.317H521.357C520.808 325.316 520.281 325.098 519.893 324.711C519.505 324.323 519.287 323.798 519.286 323.25V311.825C519.287 311.277 519.505 310.752 519.893 310.364C520.281 309.977 520.808 309.759 521.357 309.758H538.171C538.719 309.759 539.246 309.977 539.634 310.364C540.022 310.752 540.24 311.277 540.241 311.825V323.25C540.241 323.798 540.022 324.323 539.634 324.711C539.246 325.098 538.72 325.316 538.171 325.317V325.317Z" fill="#3F3D56"/>
<path d="M538.536 285.789H454.453C453.969 285.799 453.499 285.625 453.139 285.302C452.778 284.979 452.554 284.532 452.511 284.05C452.498 283.801 452.535 283.552 452.622 283.317C452.708 283.083 452.841 282.869 453.013 282.687C453.185 282.506 453.392 282.362 453.622 282.263C453.852 282.165 454.099 282.114 454.349 282.114H539.421C541.268 283.734 540.142 285.789 538.536 285.789V285.789Z" fill="#CCCCCC"/>
<path d="M538.536 295.438H454.453C453.969 295.448 453.499 295.274 453.139 294.951C452.778 294.629 452.554 294.181 452.511 293.7C452.498 293.45 452.535 293.201 452.622 292.967C452.708 292.732 452.841 292.518 453.013 292.337C453.185 292.156 453.392 292.012 453.622 291.913C453.852 291.814 454.099 291.763 454.349 291.763H539.421C541.268 293.384 540.142 295.438 538.536 295.438V295.438Z" fill="#CCCCCC"/>
<path d="M538.536 305.081H454.453C453.969 305.091 453.499 304.917 453.139 304.594C452.778 304.272 452.554 303.824 452.511 303.343C452.498 303.094 452.535 302.844 452.622 302.61C452.708 302.376 452.841 302.161 453.013 301.98C453.185 301.799 453.392 301.655 453.622 301.556C453.852 301.457 454.099 301.406 454.349 301.406H539.421C541.268 303.027 540.142 305.081 538.536 305.081V305.081Z" fill="#CCCCCC"/>
<path d="M494.451 314.73H454.453C453.969 314.74 453.499 314.566 453.139 314.243C452.778 313.921 452.554 313.473 452.511 312.992C452.498 312.742 452.535 312.493 452.622 312.259C452.708 312.024 452.841 311.81 453.013 311.629C453.185 311.448 453.392 311.304 453.622 311.205C453.852 311.106 454.099 311.055 454.349 311.055H495.336C497.183 312.676 496.057 314.73 494.451 314.73V314.73Z" fill="#CCCCCC"/>
<path d="M494.451 324.374H454.453C453.969 324.384 453.499 324.21 453.139 323.887C452.778 323.565 452.554 323.117 452.511 322.636C452.498 322.386 452.535 322.137 452.622 321.903C452.708 321.668 452.841 321.454 453.013 321.273C453.185 321.092 453.392 320.947 453.622 320.849C453.852 320.75 454.099 320.699 454.349 320.699H495.336C497.183 322.32 496.057 324.374 494.451 324.374V324.374Z" fill="#CCCCCC"/>
<path d="M527.312 238.831H465.733C464.805 238.83 463.916 238.462 463.26 237.807C462.604 237.152 462.235 236.264 462.234 235.338V224.162C462.235 223.236 462.604 222.348 463.26 221.693C463.916 221.039 464.805 220.67 465.733 220.669H527.312C528.24 220.67 529.129 221.039 529.785 221.693C530.441 222.348 530.81 223.236 530.811 224.162V235.338C530.81 236.264 530.441 237.152 529.785 237.807C529.129 238.462 528.24 238.83 527.312 238.831Z" fill="#393E46"/>
<path d="M314.31 491H47.6998C47.5142 491 47.3362 490.926 47.205 490.795C47.0737 490.664 47 490.487 47 490.302C47 490.116 47.0737 489.939 47.205 489.808C47.3362 489.677 47.5142 489.603 47.6998 489.603H314.31C314.496 489.603 314.674 489.677 314.805 489.808C314.937 489.939 315.01 490.116 315.01 490.302C315.01 490.487 314.937 490.664 314.805 490.795C314.674 490.926 314.496 491 314.31 491Z" fill="#3F3D56"/>
<path d="M114.712 131.81C117.211 131.81 119.237 129.788 119.237 127.293C119.237 124.798 117.211 122.775 114.712 122.775C112.213 122.775 110.187 124.798 110.187 127.293C110.187 129.788 112.213 131.81 114.712 131.81Z" fill="#F2F2F2"/>
<path d="M114.712 149.813C117.211 149.813 119.237 147.791 119.237 145.296C119.237 142.801 117.211 140.779 114.712 140.779C112.213 140.779 110.187 142.801 110.187 145.296C110.187 147.791 112.213 149.813 114.712 149.813Z" fill="#F2F2F2"/>
<path d="M114.712 167.817C117.211 167.817 119.237 165.794 119.237 163.3C119.237 160.805 117.211 158.782 114.712 158.782C112.213 158.782 110.187 160.805 110.187 163.3C110.187 165.794 112.213 167.817 114.712 167.817Z" fill="#F2F2F2"/>
<path d="M114.712 185.82C117.211 185.82 119.237 183.798 119.237 181.303C119.237 178.808 117.211 176.786 114.712 176.786C112.213 176.786 110.187 178.808 110.187 181.303C110.187 183.798 112.213 185.82 114.712 185.82Z" fill="#F2F2F2"/>
<path d="M133.606 131.81C136.105 131.81 138.131 129.788 138.131 127.293C138.131 124.798 136.105 122.775 133.606 122.775C131.106 122.775 129.08 124.798 129.08 127.293C129.08 129.788 131.106 131.81 133.606 131.81Z" fill="#F2F2F2"/>
<path d="M133.606 149.813C136.105 149.813 138.131 147.791 138.131 145.296C138.131 142.801 136.105 140.779 133.606 140.779C131.106 140.779 129.08 142.801 129.08 145.296C129.08 147.791 131.106 149.813 133.606 149.813Z" fill="#F2F2F2"/>
<path d="M133.606 167.817C136.105 167.817 138.131 165.794 138.131 163.3C138.131 160.805 136.105 158.782 133.606 158.782C131.106 158.782 129.08 160.805 129.08 163.3C129.08 165.794 131.106 167.817 133.606 167.817Z" fill="#F2F2F2"/>
<path d="M133.606 185.82C136.105 185.82 138.131 183.798 138.131 181.303C138.131 178.808 136.105 176.786 133.606 176.786C131.106 176.786 129.08 178.808 129.08 181.303C129.08 183.798 131.106 185.82 133.606 185.82Z" fill="#F2F2F2"/>
<path d="M152.499 131.81C154.999 131.81 157.025 129.788 157.025 127.293C157.025 124.798 154.999 122.775 152.499 122.775C150 122.775 147.974 124.798 147.974 127.293C147.974 129.788 150 131.81 152.499 131.81Z" fill="#F2F2F2"/>
<path d="M152.499 149.813C154.999 149.813 157.025 147.791 157.025 145.296C157.025 142.801 154.999 140.779 152.499 140.779C150 140.779 147.974 142.801 147.974 145.296C147.974 147.791 150 149.813 152.499 149.813Z" fill="#F2F2F2"/>
<path d="M152.499 167.817C154.999 167.817 157.025 165.794 157.025 163.3C157.025 160.805 154.999 158.782 152.499 158.782C150 158.782 147.974 160.805 147.974 163.3C147.974 165.794 150 167.817 152.499 167.817Z" fill="#F2F2F2"/>
<path d="M152.499 185.82C154.999 185.82 157.025 183.798 157.025 181.303C157.025 178.808 154.999 176.786 152.499 176.786C150 176.786 147.974 178.808 147.974 181.303C147.974 183.798 150 185.82 152.499 185.82Z" fill="#F2F2F2"/>
<path d="M171.393 131.81C173.892 131.81 175.918 129.788 175.918 127.293C175.918 124.798 173.892 122.775 171.393 122.775C168.894 122.775 166.868 124.798 166.868 127.293C166.868 129.788 168.894 131.81 171.393 131.81Z" fill="#F2F2F2"/>
<path d="M171.393 149.813C173.892 149.813 175.918 147.791 175.918 145.296C175.918 142.801 173.892 140.779 171.393 140.779C168.894 140.779 166.868 142.801 166.868 145.296C166.868 147.791 168.894 149.813 171.393 149.813Z" fill="#F2F2F2"/>
<path d="M171.393 167.817C173.892 167.817 175.918 165.794 175.918 163.3C175.918 160.805 173.892 158.782 171.393 158.782C168.894 158.782 166.868 160.805 166.868 163.3C166.868 165.794 168.894 167.817 171.393 167.817Z" fill="#F2F2F2"/>
<path d="M171.393 185.82C173.892 185.82 175.918 183.798 175.918 181.303C175.918 178.808 173.892 176.786 171.393 176.786C168.894 176.786 166.868 178.808 166.868 181.303C166.868 183.798 168.894 185.82 171.393 185.82Z" fill="#F2F2F2"/>
<path d="M190.287 131.81C192.786 131.81 194.812 129.788 194.812 127.293C194.812 124.798 192.786 122.775 190.287 122.775C187.787 122.775 185.761 124.798 185.761 127.293C185.761 129.788 187.787 131.81 190.287 131.81Z" fill="#F2F2F2"/>
<path d="M190.287 149.813C192.786 149.813 194.812 147.791 194.812 145.296C194.812 142.801 192.786 140.779 190.287 140.779C187.787 140.779 185.761 142.801 185.761 145.296C185.761 147.791 187.787 149.813 190.287 149.813Z" fill="#F2F2F2"/>
<path d="M190.287 167.817C192.786 167.817 194.812 165.794 194.812 163.3C194.812 160.805 192.786 158.782 190.287 158.782C187.787 158.782 185.761 160.805 185.761 163.3C185.761 165.794 187.787 167.817 190.287 167.817Z" fill="#F2F2F2"/>
<path d="M190.287 185.82C192.786 185.82 194.812 183.798 194.812 181.303C194.812 178.808 192.786 176.786 190.287 176.786C187.787 176.786 185.761 178.808 185.761 181.303C185.761 183.798 187.787 185.82 190.287 185.82Z" fill="#F2F2F2"/>
<path d="M209.18 131.81C211.68 131.81 213.706 129.788 213.706 127.293C213.706 124.798 211.68 122.775 209.18 122.775C206.681 122.775 204.655 124.798 204.655 127.293C204.655 129.788 206.681 131.81 209.18 131.81Z" fill="#F2F2F2"/>
<path d="M209.18 149.813C211.68 149.813 213.706 147.791 213.706 145.296C213.706 142.801 211.68 140.779 209.18 140.779C206.681 140.779 204.655 142.801 204.655 145.296C204.655 147.791 206.681 149.813 209.18 149.813Z" fill="#F2F2F2"/>
<path d="M209.18 167.817C211.68 167.817 213.706 165.794 213.706 163.3C213.706 160.805 211.68 158.782 209.18 158.782C206.681 158.782 204.655 160.805 204.655 163.3C204.655 165.794 206.681 167.817 209.18 167.817Z" fill="#F2F2F2"/>
<path d="M209.18 185.82C211.68 185.82 213.706 183.798 213.706 181.303C213.706 178.808 211.68 176.786 209.18 176.786C206.681 176.786 204.655 178.808 204.655 181.303C204.655 183.798 206.681 185.82 209.18 185.82Z" fill="#F2F2F2"/>
<path d="M468.094 381.883C470.593 381.883 472.619 379.861 472.619 377.366C472.619 374.871 470.593 372.849 468.094 372.849C465.594 372.849 463.568 374.871 463.568 377.366C463.568 379.861 465.594 381.883 468.094 381.883Z" fill="#F2F2F2"/>
<path d="M468.094 399.887C470.593 399.887 472.619 397.864 472.619 395.37C472.619 392.875 470.593 390.852 468.094 390.852C465.594 390.852 463.568 392.875 463.568 395.37C463.568 397.864 465.594 399.887 468.094 399.887Z" fill="#F2F2F2"/>
<path d="M468.094 417.89C470.593 417.89 472.619 415.868 472.619 413.373C472.619 410.878 470.593 408.856 468.094 408.856C465.594 408.856 463.568 410.878 463.568 413.373C463.568 415.868 465.594 417.89 468.094 417.89Z" fill="#F2F2F2"/>
<path d="M486.987 381.883C489.487 381.883 491.513 379.861 491.513 377.366C491.513 374.871 489.487 372.849 486.987 372.849C484.488 372.849 482.462 374.871 482.462 377.366C482.462 379.861 484.488 381.883 486.987 381.883Z" fill="#F2F2F2"/>
<path d="M486.987 399.887C489.487 399.887 491.513 397.864 491.513 395.37C491.513 392.875 489.487 390.852 486.987 390.852C484.488 390.852 482.462 392.875 482.462 395.37C482.462 397.864 484.488 399.887 486.987 399.887Z" fill="#F2F2F2"/>
<path d="M486.987 417.89C489.487 417.89 491.513 415.868 491.513 413.373C491.513 410.878 489.487 408.856 486.987 408.856C484.488 408.856 482.462 410.878 482.462 413.373C482.462 415.868 484.488 417.89 486.987 417.89Z" fill="#F2F2F2"/>
<path d="M505.881 381.883C508.38 381.883 510.406 379.861 510.406 377.366C510.406 374.871 508.38 372.849 505.881 372.849C503.382 372.849 501.356 374.871 501.356 377.366C501.356 379.861 503.382 381.883 505.881 381.883Z" fill="#F2F2F2"/>
<path d="M505.881 399.887C508.38 399.887 510.406 397.864 510.406 395.37C510.406 392.875 508.38 390.852 505.881 390.852C503.382 390.852 501.356 392.875 501.356 395.37C501.356 397.864 503.382 399.887 505.881 399.887Z" fill="#F2F2F2"/>
<path d="M505.881 417.89C508.38 417.89 510.406 415.868 510.406 413.373C510.406 410.878 508.38 408.856 505.881 408.856C503.382 408.856 501.356 410.878 501.356 413.373C501.356 415.868 503.382 417.89 505.881 417.89Z" fill="#F2F2F2"/>
<path d="M524.775 381.883C527.274 381.883 529.3 379.861 529.3 377.366C529.3 374.871 527.274 372.849 524.775 372.849C522.275 372.849 520.249 374.871 520.249 377.366C520.249 379.861 522.275 381.883 524.775 381.883Z" fill="#F2F2F2"/>
<path d="M524.775 399.887C527.274 399.887 529.3 397.864 529.3 395.37C529.3 392.875 527.274 390.852 524.775 390.852C522.275 390.852 520.249 392.875 520.249 395.37C520.249 397.864 522.275 399.887 524.775 399.887Z" fill="#F2F2F2"/>
<path d="M524.775 417.89C527.274 417.89 529.3 415.868 529.3 413.373C529.3 410.878 527.274 408.856 524.775 408.856C522.275 408.856 520.249 410.878 520.249 413.373C520.249 415.868 522.275 417.89 524.775 417.89Z" fill="#F2F2F2"/>
</g>
<defs>
<clipPath id="clip0">
<rect width="516" height="380" fill="white" transform="translate(47 111)"/>
</clipPath>
</defs>
</svg>
